<svg width="52" height="54" viewBox="0 0 52 54" fill="none" xmlns="http://www.w3.org/2000/svg">
<path d="M44.2812 54H1.625C0.783656 54 0.101562 53.2917 0.101562 52.418V47.1445C0.101562 40.8059 2.47853 34.8467 6.79463 30.3646C11.1107 25.8825 16.8492 23.4141 22.9531 23.4141C29.057 23.4141 34.7955 25.8825 39.1116 30.3646C43.4277 34.8467 45.8047 40.8059 45.8047 47.1445V52.418C45.8047 53.2917 45.1226 54 44.2812 54Z" fill="#4CAC9B"/>
<path d="M39.1116 30.3646C34.7955 25.8825 29.057 23.4141 22.9531 23.4141V54H44.2812C45.1226 54 45.8047 53.2917 45.8047 52.418V47.1445C45.8047 40.8059 43.4277 34.8467 39.1116 30.3646Z" fill="#33DB9E"/>
<path d="M22.9531 26.5781C15.8969 26.5781 10.1562 20.6167 10.1562 13.2891C10.1562 5.96141 15.8969 0 22.9531 0C30.0094 0 35.75 5.96141 35.75 13.2891C35.75 20.6167 30.0094 26.5781 22.9531 26.5781Z" fill="#FFD5B6"/>
<path d="M41.2344 44.5078C35.3542 44.5078 30.5703 39.5399 30.5703 33.4336C30.5703 27.3273 35.3542 22.3594 41.2344 22.3594C47.1145 22.3594 51.8984 27.3273 51.8984 33.4336C51.8984 39.5399 47.1145 44.5078 41.2344 44.5078Z" fill="#FFC81E"/>
<path d="M44.2812 31.8516H42.7578V30.2695C42.7578 29.3958 42.0757 28.6875 41.2344 28.6875C40.393 28.6875 39.7109 29.3958 39.7109 30.2695V31.8516H38.1875C37.3462 31.8516 36.6641 32.5599 36.6641 33.4336C36.6641 34.3073 37.3462 35.0156 38.1875 35.0156H39.7109V36.5977C39.7109 37.4714 40.393 38.1797 41.2344 38.1797C42.0757 38.1797 42.7578 37.4714 42.7578 36.5977V35.0156H44.2812C45.1226 35.0156 45.8047 34.3073 45.8047 33.4336C45.8047 32.5599 45.1226 31.8516 44.2812 31.8516Z" fill="#5D6787"/>
<path d="M22.9531 0V26.5781C30.0094 26.5781 35.75 20.6167 35.75 13.2891C35.75 5.96141 30.0094 0 22.9531 0Z" fill="#FFC896"/>
</svg>
