<svg width="56" height="55" viewBox="0 0 56 55" fill="none" xmlns="http://www.w3.org/2000/svg">
<path d="M47.1406 13.0818V41.7033C47.1406 44.1783 45.0909 46.1914 42.5709 46.1914H13.4291C10.9091 46.1914 8.85938 44.1783 8.85938 41.7033V13.0818C8.85938 10.6068 10.9091 8.59375 13.4291 8.59375H42.5709C45.0909 8.59375 47.1406 10.6068 47.1406 13.0818V13.0818Z" fill="#ECF9FD"/>
<path d="M47.1406 13.0818V41.7033C47.1406 44.1783 45.0909 46.1914 42.5709 46.1914H28V8.59375H42.5709C45.0909 8.59375 47.1406 10.6068 47.1406 13.0818Z" fill="#D9F3FC"/>
<path d="M54.25 29.1113H1.74996C-0.420476 29.1113 -0.421132 25.8887 1.74996 25.8887H54.25C56.4204 25.8887 56.4211 29.1113 54.25 29.1113Z" fill="#58B354"/>
<path d="M54.25 29.1113H28V25.8887H54.25C56.4204 25.8887 56.4211 29.1113 54.25 29.1113Z" fill="#00A963"/>
<path d="M52.7188 13.6426V5.94483C52.7188 4.44383 51.4754 3.22266 49.9472 3.22266H42.1094C39.9403 3.22266 39.9373 0 42.1094 0H49.9472C53.2847 0 56.0001 2.66686 56.0001 5.94483V13.6426C56.0001 15.773 52.7188 15.776 52.7188 13.6426Z" fill="#001737"/>
<path d="M49.9472 55H42.1094C39.9403 55 39.9373 51.7773 42.1094 51.7773H49.9472C51.4755 51.7773 52.7188 50.5562 52.7188 49.0552V41.3574C52.7188 39.227 56.0001 39.224 56.0001 41.3574V49.0552C56.0001 52.3331 53.2847 55 49.9472 55V55Z" fill="#001737"/>
<path d="M0 13.6426V5.94483C0 2.66686 2.71534 0 6.05281 0H13.8906C16.0598 0 16.0628 3.22266 13.8906 3.22266H6.05281C4.52463 3.22266 3.28125 4.44383 3.28125 5.94483V13.6426C3.28125 15.773 0 15.776 0 13.6426H0Z" fill="#00357B"/>
<path d="M13.8906 55H6.05281C2.71534 55 0 52.3331 0 49.0552V41.3574C0 39.227 3.28125 39.224 3.28125 41.3574V49.0552C3.28125 50.5562 4.52463 51.7773 6.05281 51.7773H13.8906C16.0598 51.7773 16.0628 55 13.8906 55Z" fill="#00357B"/>
<path d="M42.5706 46.1914H37.3671C35.198 46.1914 35.1949 42.9687 37.3671 42.9687H42.5706C43.2813 42.9687 43.8593 42.401 43.8593 41.7031V36.5926C43.8593 34.4622 47.1406 34.4592 47.1406 36.5926V41.7031C47.1406 44.178 45.0904 46.1914 42.5706 46.1914Z" fill="#001737"/>
<path d="M43.8593 18.1925V13.082C43.8593 12.3841 43.2811 11.8164 42.5706 11.8164H37.3671C35.198 11.8164 35.1949 8.59375 37.3671 8.59375H42.5706C45.0904 8.59375 47.1406 10.6072 47.1406 13.082V18.1925C47.1406 20.3229 43.8593 20.3259 43.8593 18.1925Z" fill="#001737"/>
<path d="M8.85938 18.1925V13.082C8.85938 10.6072 10.9095 8.59375 13.4293 8.59375H18.6328C20.8019 8.59375 20.805 11.8164 18.6328 11.8164H13.4293C12.7187 11.8164 12.1406 12.3841 12.1406 13.082V18.1925C12.1406 20.3229 8.85938 20.3259 8.85938 18.1925Z" fill="#00357B"/>
<path d="M18.6328 46.1914H13.4293C10.9095 46.1914 8.85938 44.178 8.85938 41.7031V36.5926C8.85938 34.4622 12.1406 34.4592 12.1406 36.5926V41.7031C12.1406 42.401 12.7188 42.9687 13.4293 42.9687H18.6328C20.8019 42.9687 20.805 46.1914 18.6328 46.1914Z" fill="#00357B"/>
</svg>
