<svg width="64" height="57" viewBox="0 0 64 57" fill="none" xmlns="http://www.w3.org/2000/svg">
<path d="M57.6094 18.8572H27.5774C26.5767 18.8571 25.6206 18.4882 24.9362 17.8381L21.0656 14.1628C20.3799 13.5121 19.4224 13.1433 18.4204 13.1444H5.81269C3.81257 13.1444 2.1911 14.5885 2.1911 16.3699V52.3424C2.1911 54.1258 3.81429 55.5715 5.81666 55.5715H57.6023C59.6047 55.5715 61.2279 54.1258 61.2279 52.3424V22.0828C61.2279 20.3024 59.6083 18.8587 57.6094 18.8572V18.8572Z" fill="#EAB54E"/>
<path d="M10.8594 1.42843H54.8728V36.5265H10.8594V1.42843Z" fill="#DBD8DD"/>
<path d="M8.54919 4.68729H51.2224V38.5924H8.54919V4.68729Z" fill="#EEEFEE"/>
<path d="M13.3743 8.99865H46.3988V10.5419H13.3743V8.99865Z" fill="#DBD8DD"/>
<path d="M13.3743 13.9009H46.3988V15.4441H13.3743V13.9009Z" fill="#DBD8DD"/>
<path d="M13.3743 18.8031H46.3988V20.3463H13.3743V18.8031Z" fill="#DBD8DD"/>
<path d="M60.3803 24.0319H27.5736C26.5754 24.0319 25.6214 24.3988 24.937 25.046L21.0648 28.7074C20.3805 29.3546 19.4265 29.7215 18.4282 29.7215H3.62172C1.6216 29.7217 0.00013244 31.1657 0 32.947C0 33.045 0.00503274 33.1429 0.0149658 33.2405L1.8882 52.6351C2.05852 54.2979 3.6241 55.5707 5.49893 55.5707H57.9185C59.7934 55.5707 61.3591 54.2975 61.5292 52.6345L63.9846 27.5514C64.167 25.7775 62.7001 24.2077 60.7083 24.0453C60.5992 24.0365 60.4898 24.032 60.3803 24.0319V24.0319Z" fill="#F6C863"/>
</svg>
