<svg width="69" height="59" viewBox="0 0 69 59" fill="none" xmlns="http://www.w3.org/2000/svg">
<g clip-path="url(#clip0_225_77)">
<path d="M63.5375 39.5792V52.1167C63.5375 55.3748 60.4499 58.0167 56.6375 58.0167H12.3625C8.55171 58.0167 5.46252 55.3752 5.46252 52.1167V3.93332C5.46252 2.30468 7.00784 0.983322 8.91252 0.983322H46.2875C48.1922 0.983322 49.7375 2.30468 49.7375 3.93332V8.40749C49.6772 8.42224 49.6153 8.49722 49.5535 8.62751C49.6153 8.64103 49.6772 8.65455 49.7375 8.6693V36.6292H60.0875C61.9922 36.6292 63.5375 37.9505 63.5375 39.5792Z" fill="#D6F4FC"/>
<path d="M49.7375 3.93332C49.7375 5.6662 48.1937 7.10912 46.1763 7.27346C27.3736 8.80574 12.65 22.3455 12.65 38.8417V52.1687C12.65 56.1784 5.46252 56.3814 5.46252 52.1168V3.93332C5.46252 2.30406 7.00712 0.983322 8.91252 0.983322H46.2875C48.1929 0.983322 49.7375 2.30406 49.7375 3.93332Z" fill="#E8F8FC"/>
<path d="M49.7375 8.4075V8.66931C49.6771 8.65456 49.6153 8.64104 49.5535 8.62752C49.6153 8.49723 49.6771 8.42225 49.7375 8.4075V8.4075Z" fill="#D6F4FC"/>
<path d="M63.5375 39.5792V52.1167C63.5375 55.3748 60.4499 58.0167 56.6375 58.0167C52.8267 58.0167 49.7375 55.3752 49.7375 52.1167V36.6292H60.0875C61.9922 36.6292 63.5375 37.9505 63.5375 39.5792Z" fill="#BDEFFC"/>
<path d="M59.9437 20.1583C59.9437 26.7464 53.6962 32.0812 45.9999 32.0812C35.5866 32.0812 28.8622 22.6512 33.5699 14.75C35.8788 10.8792 40.5842 8.23541 45.9999 8.23541C53.6947 8.23541 59.9437 13.5691 59.9437 20.1583Z" fill="#FFE773"/>
<path d="M52.3424 9.52076C54.4091 10.4135 53.7106 13.1025 51.3959 13.1554C43.9251 13.3263 38.0236 18.4382 37.8111 24.7295C37.7443 26.7082 34.6195 27.3273 33.5684 25.5636C31.5498 22.1765 31.5515 18.1377 33.5699 14.75C37.3071 8.48469 45.8992 6.73743 52.3424 9.52076Z" fill="#FFEC8F"/>
<path d="M30.9063 20.1583C30.9063 27.2748 37.6773 33.0646 46 33.0646C54.3227 33.0646 61.0938 27.2748 61.0938 20.1583C61.0938 13.0418 54.3227 7.25207 46 7.25207C37.6773 7.25207 30.9063 13.0418 30.9063 20.1583ZM58.7938 20.1583C58.7938 26.1905 53.0545 31.0979 46 31.0979C38.9455 31.0979 33.2063 26.1905 33.2063 20.1583C33.2063 14.1262 38.9455 9.21873 46 9.21873C53.0545 9.21873 58.7938 14.1262 58.7938 20.1583ZM46 13.5208C46.6351 13.5208 47.15 13.9611 47.15 14.5042V14.9191C48.4885 15.3251 49.45 16.4181 49.45 17.7C49.45 18.243 48.9351 18.6833 48.3 18.6833C47.6649 18.6833 47.15 18.243 47.15 17.7C47.15 17.1578 46.6341 16.7167 46 16.7167C45.3659 16.7167 44.85 17.1578 44.85 17.7V18.0979C44.85 18.5303 45.1743 18.9074 45.657 19.0365L47.029 19.403C48.4771 19.7901 49.45 20.9216 49.45 22.2188V22.6167C49.45 24.0325 48.2772 25.2183 46.7188 25.5019V25.8125C46.7188 26.3555 46.2038 26.7958 45.5688 26.7958C44.9337 26.7958 44.4188 26.3555 44.4188 25.8125V25.2372C43.3099 24.7461 42.55 23.7561 42.55 22.6167C42.55 22.0736 43.0649 21.6333 43.7 21.6333C44.3351 21.6333 44.85 22.0736 44.85 22.6167C44.85 23.1588 45.3659 23.6 46 23.6C46.6341 23.6 47.15 23.1588 47.15 22.6167V22.2188C47.15 21.7863 46.8257 21.4092 46.343 21.2802L44.971 20.9136C43.5229 20.5266 42.55 19.395 42.55 18.0979V17.7C42.55 16.4181 43.5116 15.3251 44.85 14.9191V14.5042C44.85 13.9611 45.3649 13.5208 46 13.5208V13.5208ZM64.6875 39.5792V52.1167C64.6875 55.9122 61.0762 59 56.6375 59H12.3625C7.92379 59 4.3125 55.9122 4.3125 52.1167V3.93332C4.3125 1.76445 6.37603 -1.52588e-05 8.9125 -1.52588e-05H46.2875C48.824 -1.52588e-05 50.8875 1.76445 50.8875 3.93332C50.8875 4.47636 50.3726 4.91665 49.7375 4.91665C49.1024 4.91665 48.5875 4.47636 48.5875 3.93332C48.5875 2.84895 47.5557 1.96665 46.2875 1.96665H8.9125C7.64434 1.96665 6.6125 2.84895 6.6125 3.93332V52.1167C6.6125 54.8277 9.19195 57.0333 12.3625 57.0333H51.0114C49.5171 55.783 48.5875 54.0413 48.5875 52.1167V36.7521C48.5875 36.209 49.1024 35.7687 49.7375 35.7687C50.3726 35.7687 50.8875 36.209 50.8875 36.7521V52.1167C50.8875 54.8277 53.467 57.0333 56.6375 57.0333C59.8081 57.0333 62.3875 54.8277 62.3875 52.1167V39.5792C62.3875 38.4948 61.3557 37.6125 60.0875 37.6125H55.2C54.5649 37.6125 54.05 37.1722 54.05 36.6292C54.05 36.0861 54.5649 35.6458 55.2 35.6458H60.0875C62.624 35.6458 64.6875 37.4103 64.6875 39.5792ZM14.375 26.4271C14.375 25.884 14.8899 25.4437 15.525 25.4437H25.3C25.9351 25.4437 26.45 25.884 26.45 26.4271C26.45 26.9701 25.9351 27.4104 25.3 27.4104H15.525C14.8899 27.4104 14.375 26.9701 14.375 26.4271ZM14.375 15.3646C14.375 14.8215 14.8899 14.3812 15.525 14.3812H25.3C25.9351 14.3812 26.45 14.8215 26.45 15.3646C26.45 15.9076 25.9351 16.3479 25.3 16.3479H15.525C14.8899 16.3479 14.375 15.9076 14.375 15.3646ZM40.825 37.4896C40.825 38.0326 40.3101 38.4729 39.675 38.4729H15.525C14.8899 38.4729 14.375 38.0326 14.375 37.4896C14.375 36.9465 14.8899 36.5062 15.525 36.5062H39.675C40.3101 36.5062 40.825 36.9465 40.825 37.4896ZM40.825 47.8146C40.825 48.3576 40.3101 48.7979 39.675 48.7979H15.525C14.8899 48.7979 14.375 48.3576 14.375 47.8146C14.375 47.2715 14.8899 46.8312 15.525 46.8312H39.675C40.3101 46.8312 40.825 47.2715 40.825 47.8146Z" fill="black"/>
</g>
<defs>
<clipPath id="clip0_225_77">
<rect width="69" height="59" fill="white"/>
</clipPath>
</defs>
</svg>
