<svg width="60" height="60" viewBox="0 0 60 60" fill="none" xmlns="http://www.w3.org/2000/svg">
<path d="M30 60C46.5685 60 60 46.5685 60 30C60 13.4315 46.5685 0 30 0C13.4315 0 0 13.4315 0 30C0 46.5685 13.4315 60 30 60Z" fill="#CBE1EF"/>
<path d="M30 0C29.1872 0 28.382 0.0323437 27.5854 0.0957422C43.025 1.32539 55.171 14.2443 55.171 30C55.171 45.7557 43.025 58.6746 27.5854 59.9043C28.382 59.9677 29.1872 60 30 60C46.5685 60 60 46.5686 60 30C60 13.4314 46.5685 0 30 0Z" fill="#BADBEF"/>
<path d="M30.0001 55.3279C43.9883 55.3279 55.3279 43.9882 55.3279 30C55.3279 16.0118 43.9883 4.67215 30.0001 4.67215C16.0119 4.67215 4.67224 16.0118 4.67224 30C4.67224 43.9882 16.0119 55.3279 30.0001 55.3279Z" fill="white"/>
<path d="M15.206 30.0475C15.206 27.4179 15.8874 24.893 17.1669 22.6745L11.88 19.6219C10.0711 22.7563 9.10742 26.3241 9.10742 30.0401C9.10742 33.7689 10.0776 37.3486 11.8987 40.4909L11.9231 40.5198L17.1792 37.4445C15.8882 35.2168 15.206 32.6591 15.206 30.0475Z" fill="#6ED668"/>
<path d="M15.2268 15.2666C13.9083 16.5852 12.7877 18.0489 11.88 19.6218L17.1669 22.6744C17.81 21.5591 18.6043 20.5212 19.5391 19.5864C22.3334 16.7922 26.0484 15.2534 30.0001 15.2534V9.14745C24.4194 9.14745 19.1728 11.3206 15.2268 15.2666Z" fill="#FFEE03"/>
<path d="M48.1201 19.6218C47.2124 18.0489 46.092 16.5852 44.7734 15.2666C40.8272 11.3206 35.5806 9.14745 30 9.14745V15.2535C33.9517 15.2535 37.6668 16.7924 40.461 19.5865C41.3958 20.5213 42.19 21.5591 42.8332 22.6745L48.1201 19.6218Z" fill="#FF9D00"/>
<path d="M50.8924 30.04C50.8924 26.3241 49.9288 22.7562 48.1199 19.6218L42.833 22.6744C44.1123 24.8929 44.7939 27.4178 44.7939 30.0474C44.7939 32.659 44.1116 35.2167 42.8207 37.4442L48.1011 40.4906C49.9222 37.3485 50.8924 33.7688 50.8924 30.04Z" fill="#FF6A45"/>
<path d="M39.2443 14.268C38.8129 14.0153 38.2581 14.1598 38.0052 14.5913L29.2188 29.5821C28.966 30.0136 29.1106 30.5683 29.5421 30.8211C29.686 30.9054 29.8435 30.9455 29.9991 30.9455C30.3099 30.9455 30.6126 30.7853 30.7811 30.4978L39.5676 15.507C39.8204 15.0755 39.6756 14.5208 39.2443 14.268Z" fill="#688EA6"/>
<path d="M30.0001 33.1988C31.7447 33.1988 33.1589 31.7846 33.1589 30.04C33.1589 28.2954 31.7447 26.8812 30.0001 26.8812C28.2555 26.8812 26.8413 28.2954 26.8413 30.04C26.8413 31.7846 28.2555 33.1988 30.0001 33.1988Z" fill="#FF6A45"/>
<path d="M30 26.8812C29.4534 26.8812 28.9393 27.0201 28.491 27.2643C29.4738 27.7997 30.1407 28.842 30.1407 30.04C30.1407 31.238 29.4738 32.2803 28.491 32.8157C28.9393 33.06 29.4534 33.1988 30 33.1988C31.7446 33.1988 33.1588 31.7846 33.1588 30.04C33.1588 28.2954 31.7446 26.8812 30 26.8812Z" fill="#F55931"/>
<path d="M35.5048 35.4522H24.4951C23.9951 35.4522 23.5897 35.8575 23.5897 36.3575C23.5897 36.8576 23.9951 37.2629 24.4951 37.2629H35.5048C36.0048 37.2629 36.4102 36.8576 36.4102 36.3575C36.4103 35.8575 36.0048 35.4522 35.5048 35.4522Z" fill="#F5F0DC"/>
<path d="M39.5506 39.5907H20.449L15.2266 44.8132C23.2785 52.865 36.7199 52.8663 44.7732 44.8132L39.5506 39.5907Z" fill="#A4C3D6"/>
</svg>
