<svg width="64" height="64" viewBox="0 0 64 64" fill="none" xmlns="http://www.w3.org/2000/svg">
<path d="M52.11 58.32C52.11 61.376 49.821 63.851 46.994 63.851H14.379C11.555 63.851 9.26501 61.375 9.26501 58.32V8.44702C9.26501 5.38802 11.556 2.91302 14.379 2.91302H46.994C49.821 2.91302 52.11 5.38802 52.11 8.44702V58.32Z" fill="#F4AE7F"/>
<path d="M30.899 10.509C30.899 11.09 29.741 11.56 28.319 11.56H11.848C10.422 11.56 9.26599 11.09 9.26599 10.509V1.049C9.26599 0.47 10.421 0 11.848 0H28.319C29.741 0 30.899 0.47 30.899 1.049V10.509Z" fill="#F4AE7F"/>
<path d="M54.662 56C54.662 58.593 52.35 60.69 49.495 60.69H16.536C13.685 60.69 11.369 58.592 11.369 56V13.73C11.369 11.139 13.685 9.03998 16.536 9.03998H49.495C52.35 9.03998 54.662 11.14 54.662 13.73V56Z" fill="#D0D2D3"/>
<path d="M54.662 52.694C54.662 55.287 52.35 57.384 49.495 57.384H16.536C13.685 57.384 11.369 55.286 11.369 52.694V10.424C11.369 7.83302 13.685 5.73602 16.536 5.73602H49.495C52.35 5.73602 54.662 7.83402 54.662 10.424V52.694Z" fill="white"/>
<path d="M43.1 8.28002C43.1 8.59202 41.562 8.84602 39.67 8.84602H17.77C15.874 8.84602 14.336 8.59202 14.336 8.28002V3.18502C14.336 2.87002 15.874 2.61902 17.77 2.61902H39.67C41.562 2.61902 43.1 2.87002 43.1 3.18502V8.28002Z" fill="#D0D2D3"/>
<path d="M20.07 18.03H48.632C50.554 18.03 50.554 15.33 48.632 15.33H20.07C18.155 15.33 18.155 18.03 20.07 18.03Z" fill="#35494D"/>
<path d="M20.07 23.515H48.632C50.554 23.515 50.554 20.817 48.632 20.817H20.07C18.155 20.817 18.155 23.515 20.07 23.515Z" fill="#35494D"/>
<path d="M20.07 29.12H48.632C50.554 29.12 50.554 26.42 48.632 26.42H20.07C18.155 26.42 18.155 29.12 20.07 29.12Z" fill="#35494D"/>
<path d="M20.07 34.6H48.632C50.554 34.6 50.554 31.902 48.632 31.902H20.07C18.155 31.902 18.155 34.6 20.07 34.6Z" fill="#35494D"/>
<path d="M20.07 45.18H33.218C35.134 45.18 35.134 42.481 33.218 42.481H20.07C18.155 42.48 18.155 45.18 20.07 45.18Z" fill="#35494D"/>
</svg>
