<svg width="61" height="61" viewBox="0 0 61 61" fill="none" xmlns="http://www.w3.org/2000/svg">
<g clip-path="url(#clip0_225_111)">
<path d="M48.3711 3.69336H41.2227H34.0742C27.177 3.69336 21.4453 9.30596 21.4453 16.2031C21.4453 22.4947 26.233 27.7164 32.2871 28.5855V34.0742C32.2871 34.7967 32.7216 35.4495 33.3901 35.7251C34.0493 36.0002 34.8225 35.8528 35.3378 35.3377L41.2227 29.4529L41.9626 28.7129H48.3711C55.2683 28.7129 61 23.1003 61 16.2031C61 9.30596 55.2683 3.69336 48.3711 3.69336V3.69336Z" fill="#FED843"/>
<path d="M48.3711 28.7129C55.2683 28.7129 61 23.1003 61 16.2031C61 9.30595 55.2683 3.69336 48.3711 3.69336H41.2227V29.4529L41.9626 28.7129H48.3711Z" fill="#FABE2C"/>
<path d="M45.5117 44.7969V51.9453C45.5117 55.0549 42.9728 57.3066 40.1754 57.3066C29.8805 57.3066 19.8369 52.4397 12.3668 44.9994C4.89668 37.5591 0 27.5453 0 17.2504C0 14.2933 2.40545 11.9141 5.36133 11.9141H12.5098C13.2794 11.9141 13.9621 12.4061 14.2039 13.1353L17.7782 23.8329C17.9533 24.3571 17.8759 24.9314 17.5709 25.3901L14.5399 29.9377C15.6884 32.3467 17.721 34.9797 20.068 37.2982C22.4163 39.6154 25.0791 41.6182 27.4881 42.7667L32.0357 39.7358C32.4968 39.432 33.0687 39.3521 33.5929 39.5285L44.3155 43.1027C45.0447 43.3446 45.5117 44.0272 45.5117 44.7969V44.7969Z" fill="#FF641A"/>
<path d="M45.5117 44.7969V51.9453C45.5117 55.0549 42.9728 57.3066 40.1754 57.3066C29.8804 57.3066 19.8369 52.4397 12.3668 44.9994L20.068 37.2982C22.4163 39.6155 25.0791 41.6182 27.4881 42.7667L32.0357 39.7358C32.4968 39.432 33.0686 39.3522 33.5929 39.5285L44.3155 43.1027C45.0447 43.3446 45.5117 44.0272 45.5117 44.7969Z" fill="#F03800"/>
<path d="M34.0741 17.9901C35.0611 17.9901 35.8612 17.19 35.8612 16.203C35.8612 15.216 35.0611 14.4159 34.0741 14.4159C33.0871 14.4159 32.287 15.216 32.287 16.203C32.287 17.19 33.0871 17.9901 34.0741 17.9901Z" fill="#613D5C"/>
<path d="M41.2227 17.99C42.2096 17.99 43.0098 17.1899 43.0098 16.2029C43.0098 15.2159 42.2096 14.4158 41.2227 14.4158C40.2357 14.4158 39.4355 15.2159 39.4355 16.2029C39.4355 17.1899 40.2357 17.99 41.2227 17.99Z" fill="#613D5C"/>
<path d="M43.0098 16.2029C43.0098 15.2159 42.2096 14.4158 41.2227 14.4158V17.99C42.2096 17.99 43.0098 17.1898 43.0098 16.2029Z" fill="#4B2746"/>
<path d="M48.371 17.9901C49.358 17.9901 50.1581 17.19 50.1581 16.203C50.1581 15.216 49.358 14.4159 48.371 14.4159C47.384 14.4159 46.5839 15.216 46.5839 16.203C46.5839 17.19 47.384 17.9901 48.371 17.9901Z" fill="#4B2746"/>
</g>
<defs>
<clipPath id="clip0_225_111">
<rect width="61" height="61" fill="white"/>
</clipPath>
</defs>
</svg>
