<svg width="20" height="20" viewBox="0 0 20 20" fill="none" xmlns="http://www.w3.org/2000/svg">
<path d="M9.25001 7.30696C9.09001 7.49096 9.00001 7.74496 9.00001 7.99996C9.00001 8.13257 8.94733 8.25974 8.85356 8.35351C8.75979 8.44728 8.63262 8.49996 8.50001 8.49996C8.3674 8.49996 8.24022 8.44728 8.14645 8.35351C8.05269 8.25974 8.00001 8.13257 8.00001 7.99996C8.00001 7.52696 8.16101 7.02996 8.50001 6.64596C8.84701 6.25196 9.36001 5.99996 10 5.99996C10.64 5.99996 11.153 6.25196 11.5 6.64596C11.839 7.03096 12 7.52596 12 7.99996C12 8.48996 11.884 8.86996 11.698 9.18996C11.535 9.46896 11.322 9.68996 11.153 9.86696L11.111 9.90996C10.925 10.105 10.782 10.264 10.677 10.464C10.577 10.655 10.5 10.908 10.5 11.293C10.5 11.4256 10.4473 11.5527 10.3536 11.6465C10.2598 11.7403 10.1326 11.793 10 11.793C9.8674 11.793 9.74022 11.7403 9.64645 11.6465C9.55269 11.5527 9.50001 11.4256 9.50001 11.293C9.50001 10.761 9.61001 10.346 9.79101 9.99996C9.96801 9.66296 10.201 9.41596 10.389 9.21896L10.411 9.19596C10.599 8.99896 10.733 8.85896 10.834 8.68596C10.929 8.52296 11 8.31696 11 7.99996C11 7.74496 10.911 7.48996 10.75 7.30696C10.597 7.13396 10.36 6.99996 10 6.99996C9.64001 6.99996 9.40301 7.13396 9.25001 7.30696ZM10 14.212C10.0941 14.2155 10.1879 14.2001 10.2759 14.1665C10.3639 14.133 10.4442 14.082 10.512 14.0167C10.5798 13.9514 10.6338 13.8731 10.6706 13.7864C10.7075 13.6998 10.7265 13.6066 10.7265 13.5125C10.7265 13.4183 10.7075 13.3251 10.6706 13.2385C10.6338 13.1518 10.5798 13.0735 10.512 13.0082C10.4442 12.9429 10.3639 12.892 10.2759 12.8584C10.1879 12.8249 10.0941 12.8094 10 12.813C9.81436 12.813 9.63631 12.8867 9.50503 13.018C9.37376 13.1493 9.30001 13.3273 9.30001 13.513C9.30001 13.6986 9.37376 13.8767 9.50503 14.0079C9.63631 14.1392 9.81436 14.213 10 14.213V14.212ZM2.00001 9.99996C2.00045 8.25178 2.5735 6.55187 3.63153 5.16021C4.68956 3.76856 6.17431 2.76178 7.8587 2.29386C9.54309 1.82593 11.3344 1.92263 12.9586 2.56915C14.5829 3.21567 15.9506 4.37643 16.8527 5.87389C17.7548 7.37135 18.1415 9.12307 17.9537 10.8611C17.766 12.5992 17.0141 14.2279 15.813 15.4982C14.612 16.7685 13.0279 17.6104 11.3031 17.8951C9.57824 18.1799 7.80762 17.8918 6.26201 17.075L2.62201 17.985C2.53823 18.006 2.45043 18.005 2.36716 17.982C2.28389 17.9591 2.20799 17.9149 2.14686 17.8539C2.08573 17.7929 2.04146 17.717 2.01835 17.6338C1.99524 17.5506 1.99409 17.4628 2.01501 17.379L2.92501 13.738C2.3157 12.5863 1.9981 11.3028 2.00001 9.99996V9.99996ZM10 2.99996C8.77839 2.99958 7.57794 3.31892 6.51796 3.92622C5.45799 4.53353 4.57541 5.40766 3.95792 6.46173C3.34044 7.51581 3.00957 8.71313 2.99818 9.9347C2.98679 11.1563 3.29529 12.3596 3.89301 13.425C3.95578 13.5361 3.97367 13.667 3.94301 13.791L3.18701 16.813L6.20901 16.057C6.33292 16.0263 6.46386 16.0442 6.57501 16.107C7.50827 16.6298 8.54894 16.9317 9.61709 16.9897C10.6852 17.0476 11.7525 16.86 12.7368 16.4412C13.7211 16.0223 14.5964 15.3835 15.2953 14.5737C15.9943 13.7639 16.4983 12.8047 16.7688 11.7697C17.0392 10.7347 17.0689 9.65154 16.8555 8.60333C16.642 7.55511 16.1912 6.56975 15.5376 5.72293C14.884 4.8761 14.045 4.19034 13.085 3.71831C12.1251 3.24628 11.0697 3.00054 10 2.99996Z" fill="black"/>
</svg>
