<svg width="54" height="54" viewBox="0 0 54 54" fill="none" xmlns="http://www.w3.org/2000/svg">
<g clip-path="url(#clip0_225_229)">
<path d="M25.9412 -1.52588e-05H27.5294V9.5294H25.9412V-1.52588e-05Z" fill="#04303E"/>
<path d="M24.353 -1.52588e-05H25.9413V9.5294H24.353V-1.52588e-05Z" fill="#07485E"/>
<path d="M25.9412 1.58821H35.4706V4.76468H25.9412V1.58821Z" fill="#B3D1D6"/>
<path d="M16.4117 1.58821H25.9412V4.76468H16.4117V1.58821Z" fill="#E5EAEE"/>
<path d="M49.7647 30.1764V31.7647H38.647V30.1764C38.647 28.4251 37.2219 27 35.4706 27H25.9412V7.94115H32.2941V13.2744C32.2941 13.9648 32.5641 14.6117 33.0543 15.0967C33.5446 15.5816 34.1936 15.8453 34.884 15.8379L35.4197 15.8315C43.3302 15.8315 49.7647 22.267 49.7647 30.1764Z" fill="#B3D1D6"/>
<path d="M25.9412 7.94115V27H8.47058V15.8823H16.5875C18.2425 15.8823 19.5882 14.5366 19.5882 12.8816V7.94115H25.9412Z" fill="#E5EAEE"/>
<path d="M51.8824 46.5882C51.8824 50.6753 48.5577 54 44.4706 54L42.6177 44.4706L44.4706 34.7495L45.6353 36.0074C45.6978 36.0741 47.1685 37.6666 48.6604 39.6889C50.8289 42.6272 51.8824 44.8835 51.8824 46.5882Z" fill="#6AA8FF"/>
<path d="M44.4706 34.7495V54C40.3835 54 37.0588 50.6753 37.0588 46.5882C37.0588 44.8835 38.1124 42.6272 40.2808 39.6889C41.7727 37.6666 43.2434 36.0741 43.3059 36.0074L44.4706 34.7495Z" fill="#7ED7F5"/>
<path d="M6.41057 11.1177H2.11768V31.7647H6.41057C9.29798 31.7647 11.6471 29.4156 11.6471 26.5282V16.3541C11.6471 13.4668 9.29798 11.1177 6.41057 11.1177Z" fill="#B3D1D6"/>
</g>
<defs>
<clipPath id="clip0_225_229">
<rect width="54" height="54" fill="white"/>
</clipPath>
</defs>
</svg>
